<svg width="78" height="78" viewBox="0 0 78 78" fill="none" xmlns="http://www.w3.org/2000/svg">
<path d="M46.296 54.396C44.136 54.396 42.42 53.988 41.148 53.172C39.9 52.356 39.024 51.228 38.52 49.788C38.016 48.324 37.764 46.632 37.764 44.712V34.236C37.764 32.22 38.016 30.492 38.52 29.052C39.024 27.588 39.9 26.46 41.148 25.668C42.42 24.876 44.136 24.48 46.296 24.48C48.384 24.48 50.016 24.828 51.192 25.524C52.392 26.22 53.232 27.204 53.712 28.476C54.216 29.748 54.468 31.224 54.468 32.904V35.352H48.708V32.616C48.708 31.944 48.672 31.32 48.6 30.744C48.528 30.144 48.324 29.664 47.988 29.304C47.676 28.92 47.124 28.728 46.332 28.728C45.54 28.728 44.964 28.92 44.604 29.304C44.244 29.688 44.016 30.192 43.92 30.816C43.824 31.416 43.776 32.088 43.776 32.832V46.08C43.776 46.896 43.836 47.616 43.956 48.24C44.1 48.84 44.352 49.308 44.712 49.644C45.096 49.956 45.636 50.112 46.332 50.112C47.1 50.112 47.64 49.932 47.952 49.572C48.288 49.188 48.492 48.684 48.564 48.06C48.66 47.436 48.708 46.776 48.708 46.08V43.236H54.468V45.648C54.468 47.352 54.228 48.864 53.748 50.184C53.268 51.48 52.44 52.512 51.264 53.28C50.088 54.024 48.432 54.396 46.296 54.396Z" fill="#F8F8F8"/>
<path d="M31.756 54.396C29.956 54.396 28.456 54.072 27.256 53.424C26.056 52.752 25.144 51.756 24.52 50.436C23.92 49.092 23.572 47.388 23.476 45.324L28.588 44.46C28.636 45.66 28.756 46.668 28.948 47.484C29.164 48.276 29.476 48.876 29.884 49.284C30.316 49.668 30.844 49.86 31.468 49.86C32.236 49.86 32.752 49.62 33.016 49.14C33.304 48.66 33.448 48.108 33.448 47.484C33.448 46.26 33.148 45.24 32.548 44.424C31.972 43.584 31.204 42.744 30.244 41.904L27.22 39.276C26.14 38.364 25.252 37.332 24.556 36.18C23.884 35.028 23.548 33.612 23.548 31.932C23.548 29.532 24.244 27.696 25.636 26.424C27.052 25.128 28.984 24.48 31.432 24.48C32.896 24.48 34.096 24.72 35.032 25.2C35.968 25.68 36.688 26.328 37.192 27.144C37.72 27.936 38.08 28.812 38.272 29.772C38.488 30.708 38.62 31.644 38.668 32.58L33.592 33.336C33.544 32.448 33.46 31.668 33.34 30.996C33.244 30.324 33.028 29.796 32.692 29.412C32.38 29.028 31.9 28.836 31.252 28.836C30.556 28.836 30.04 29.1 29.704 29.628C29.368 30.132 29.2 30.696 29.2 31.32C29.2 32.352 29.428 33.204 29.884 33.876C30.364 34.524 31.012 35.208 31.828 35.928L34.78 38.52C36.004 39.576 37.048 40.788 37.912 42.156C38.8 43.5 39.244 45.168 39.244 47.16C39.244 48.528 38.932 49.764 38.308 50.868C37.684 51.972 36.808 52.836 35.68 53.46C34.576 54.084 33.268 54.396 31.756 54.396Z" fill="#F8F8F8"/>
<path d="M39.7071 2.29289L39 1.58579L38.2929 2.29289L2.29289 38.2929L1.58579 39L2.29289 39.7071L38.2929 75.7071L39 76.4142L39.7071 75.7071L75.7071 39.7071L76.4142 39L75.7071 38.2929L39.7071 2.29289Z" stroke="#45DDFB" stroke-width="2"/>
</svg>
