<svg width="178" height="130" viewBox="0 0 178 130" fill="none" xmlns="http://www.w3.org/2000/svg">
<path fill-rule="evenodd" clip-rule="evenodd" d="M89 2L0 130H178L89 2ZM164.012 128.6H13.9878L89 113.429L164.012 128.6ZM10.9701 127.781L89 112L167.03 127.781L89 101.479L10.9701 127.781ZM89 89.5513L11.5054 126.122L89 100L166.495 126.122L89 89.5513ZM12.1824 124.251L89 88L165.818 124.251L89 77.6426L12.1824 124.251ZM89 65.75L12.9792 122.125L89 76L165.021 122.125L89 65.75ZM13.875 119.711L89 64L164.125 119.711L89 53.8708L13.875 119.711ZM89 42.0025L14.8521 116.984L89 52L163.148 116.984L89 42.0025ZM15.8952 113.926L89 40L162.105 113.926L89 30.1432L15.8952 113.926ZM89 16.3164L14.7257 113.123L89 28L163.274 113.123L89 16.3164ZM18.3279 106.112L89 14L159.672 106.112L89 4.47119L18.3279 106.112Z" fill="url(#paint0_linear_115_426)" fill-opacity="0.35"/>
<path fill-rule="evenodd" clip-rule="evenodd" d="M89 128L0 0H178L89 128ZM164.012 1.4H13.9878L89 16.571L164.012 1.4ZM10.9701 2.21868L89 18L167.03 2.21867L89 28.5209L10.9701 2.21868ZM89 40.4487L11.5054 3.87821L89 30L166.495 3.8782L89 40.4487ZM12.1824 5.749L89 42L165.818 5.749L89 52.3574L12.1824 5.749ZM89 64.25L12.9792 7.875L89 54L165.021 7.87501L89 64.25ZM13.875 10.2893L89 66L164.125 10.2893L89 76.1292L13.875 10.2893ZM89 87.9975L14.8521 13.0165L89 78L163.148 13.0164L89 87.9975ZM15.8952 16.0738L89 90L162.105 16.0739L89 99.8568L15.8952 16.0738ZM89 113.684L14.7257 16.8766L89 102L163.274 16.8766L89 113.684ZM18.3279 23.8881L89 116L159.672 23.8881L89 125.529L18.3279 23.8881Z" fill="url(#paint1_linear_115_426)" fill-opacity="0.65"/>
<defs>
<linearGradient id="paint0_linear_115_426" x1="89" y1="2" x2="89" y2="130" gradientUnits="userSpaceOnUse">
<stop stop-color="#45DDFB"/>
<stop offset="1" stop-color="#00D4FF" stop-opacity="0"/>
</linearGradient>
<linearGradient id="paint1_linear_115_426" x1="89" y1="128" x2="89" y2="0" gradientUnits="userSpaceOnUse">
<stop stop-color="#45DDFB"/>
<stop offset="1" stop-color="#00D4FF" stop-opacity="0"/>
</linearGradient>
</defs>
</svg>
