<svg width="271" height="164" viewBox="0 0 271 164" fill="none" xmlns="http://www.w3.org/2000/svg">
<rect width="271" height="164" fill="#E5E5E5"/>
<g clip-path="url(#clip0_0_1)">
<rect width="1512" height="4335" transform="translate(-460 -396)" fill="#151517"/>
<g clip-path="url(#clip1_0_1)">
<path fill-rule="evenodd" clip-rule="evenodd" d="M170.5 14L273 162H68L170.5 14ZM84.1095 160.381H256.891L170.5 142.84L84.1095 160.381ZM260.366 159.435L170.5 141.188L80.6341 159.435L170.5 129.023L260.366 159.435ZM170.5 115.231L259.749 157.516L170.5 127.312L81.2505 157.516L170.5 115.231ZM258.97 155.353L170.5 113.438L82.0303 155.353L170.5 101.462L258.97 155.353ZM170.5 87.7109L258.052 152.895L170.5 99.5625L82.9479 152.895L170.5 87.7109ZM257.02 150.103L170.5 85.6875L83.9796 150.103L170.5 73.9756L257.02 150.103ZM170.5 60.2529L255.895 146.95L170.5 71.8125L85.1049 146.95L170.5 60.2529ZM254.694 143.415L170.5 57.9375L86.3064 143.415L170.5 46.5406L254.694 143.415ZM170.5 30.5533L256.041 142.486L170.5 44.0625L84.9593 142.486L170.5 30.5533ZM251.892 134.379L170.5 27.875L89.108 134.379L170.5 16.8573L251.892 134.379Z" fill="url(#paint0_linear_0_1)" fill-opacity="0.5"/>
<path fill-rule="evenodd" clip-rule="evenodd" d="M112.5 14L11 162H214L112.5 14ZM198.048 160.381H26.9523L112.5 142.84L198.048 160.381ZM23.5108 159.435L112.5 141.188L201.489 159.435L112.5 129.023L23.5108 159.435ZM112.5 115.231L24.1213 157.516L112.5 127.312L200.879 157.516L112.5 115.231ZM24.8934 155.353L112.5 113.438L200.107 155.353L112.5 101.462L24.8934 155.353ZM112.5 87.7109L25.8021 152.895L112.5 99.5625L199.198 152.895L112.5 87.7109ZM26.8238 150.103L112.5 85.6875L198.176 150.103L112.5 73.9756L26.8238 150.103ZM112.5 60.2529L27.9381 146.95L112.5 71.8125L197.062 146.95L112.5 60.2529ZM29.1276 143.415L112.5 57.9375L195.872 143.415L112.5 46.5406L29.1276 143.415ZM112.5 30.5533L27.7939 142.486L112.5 44.0625L197.206 142.486L112.5 30.5533ZM31.9021 134.379L112.5 27.875L193.098 134.379L112.5 16.8573L31.9021 134.379Z" fill="url(#paint1_linear_0_1)" fill-opacity="0.5"/>
</g>
</g>
<defs>
<linearGradient id="paint0_linear_0_1" x1="73.8239" y1="162" x2="223.674" y2="90.6181" gradientUnits="userSpaceOnUse">
<stop stop-color="#F8F8F8"/>
<stop offset="1" stop-color="white" stop-opacity="0"/>
</linearGradient>
<linearGradient id="paint1_linear_0_1" x1="208.233" y1="162" x2="65.033" y2="79.0559" gradientUnits="userSpaceOnUse">
<stop stop-color="#45DDFB"/>
<stop offset="1" stop-color="white" stop-opacity="0"/>
</linearGradient>
<clipPath id="clip0_0_1">
<rect width="1512" height="4335" fill="white" transform="translate(-460 -396)"/>
</clipPath>
<clipPath id="clip1_0_1">
<rect width="271" height="164" fill="white"/>
</clipPath>
</defs>
</svg>
